<svg width="703" height="243" viewBox="0 0 703 243" fill="none" xmlns="http://www.w3.org/2000/svg">
<rect y="0.348633" width="82.56" height="242.176" fill="#101010"/>
<circle cx="142.553" cy="61.443" r="61.0944" fill="#101010"/>
<circle cx="142.553" cy="181.43" r="61.0944" fill="#101010"/>
<path d="M206.129 14.9924V1.47559H208.851L213.199 10.416L217.466 1.47559H220.209V14.9924H217.893V5.39546L214.073 13.1966H212.265L208.445 5.39546V14.9924H206.129Z" fill="#101010"/>
<path d="M198.843 14.9924V3.32932H194.865V1.47559H205.003V3.32932H201.025V14.9924H198.843Z" fill="#101010"/>
<path d="M678.687 219.999C674.53 219.999 670.951 219.454 667.952 218.363C664.976 217.273 662.545 215.83 660.659 214.035C658.774 212.24 657.365 210.275 656.434 208.14L665.192 204.527C665.805 205.527 666.623 206.583 667.646 207.697C668.691 208.833 670.099 209.798 671.871 210.593C673.666 211.388 675.972 211.786 678.789 211.786C682.652 211.786 685.844 210.843 688.366 208.958C690.888 207.095 692.148 204.118 692.148 200.029V189.737H691.501C690.888 190.85 690.002 192.088 688.843 193.452C687.707 194.815 686.139 195.996 684.14 196.996C682.141 197.995 679.539 198.495 676.336 198.495C672.201 198.495 668.475 197.53 665.158 195.598C661.864 193.645 659.251 190.771 657.32 186.976C655.411 183.16 654.457 178.468 654.457 172.902C654.457 167.336 655.4 162.564 657.286 158.589C659.194 154.613 661.807 151.568 665.124 149.455C668.441 147.32 672.201 146.252 676.404 146.252C679.653 146.252 682.277 146.797 684.276 147.888C686.276 148.956 687.832 150.205 688.945 151.636C690.081 153.068 690.956 154.329 691.569 155.419H692.319V146.934H702.304V200.438C702.304 204.936 701.259 208.628 699.169 211.513C697.079 214.399 694.25 216.534 690.683 217.92C687.139 219.306 683.14 219.999 678.687 219.999ZM678.585 190.044C681.516 190.044 683.992 189.362 686.014 187.999C688.059 186.613 689.604 184.636 690.649 182.069C691.717 179.479 692.251 176.378 692.251 172.765C692.251 169.244 691.728 166.143 690.683 163.462C689.638 160.781 688.104 158.691 686.082 157.191C684.06 155.669 681.561 154.908 678.585 154.908C675.518 154.908 672.962 155.703 670.917 157.294C668.872 158.861 667.328 160.997 666.282 163.7C665.26 166.404 664.749 169.426 664.749 172.765C664.749 176.196 665.271 179.206 666.317 181.796C667.362 184.386 668.907 186.408 670.951 187.863C673.019 189.317 675.563 190.044 678.585 190.044Z" fill="#101010"/>
<path d="M614.934 168.199V199.279H604.744V146.934H614.525V155.453H615.172C616.376 152.682 618.262 150.455 620.829 148.774C623.419 147.093 626.68 146.252 630.61 146.252C634.177 146.252 637.301 147.002 639.982 148.501C642.663 149.978 644.742 152.182 646.218 155.113C647.695 158.043 648.434 161.667 648.434 165.984V199.279H638.244V167.211C638.244 163.416 637.256 160.452 635.279 158.316C633.302 156.158 630.587 155.078 627.134 155.078C624.771 155.078 622.67 155.59 620.829 156.612C619.012 157.634 617.569 159.134 616.501 161.11C615.456 163.064 614.934 165.427 614.934 168.199Z" fill="#101010"/>
<path d="M586.774 199.278V146.932H596.963V199.278H586.774ZM591.919 138.856C590.147 138.856 588.625 138.265 587.353 137.084C586.103 135.879 585.479 134.448 585.479 132.79C585.479 131.108 586.103 129.677 587.353 128.496C588.625 127.292 590.147 126.689 591.919 126.689C593.692 126.689 595.202 127.292 596.452 128.496C597.724 129.677 598.36 131.108 598.36 132.79C598.36 134.448 597.724 135.879 596.452 137.084C595.202 138.265 593.692 138.856 591.919 138.856Z" fill="#101010"/>
<path d="M579.735 146.934V155.113H551.143V146.934H579.735ZM558.81 134.393H569V183.91C569 185.886 569.295 187.374 569.886 188.374C570.477 189.351 571.238 190.021 572.169 190.385C573.124 190.725 574.157 190.896 575.271 190.896C576.088 190.896 576.804 190.839 577.418 190.725C578.031 190.612 578.508 190.521 578.849 190.453L580.689 198.87C580.098 199.097 579.258 199.325 578.167 199.552C577.077 199.802 575.714 199.938 574.078 199.961C571.397 200.006 568.898 199.529 566.58 198.529C564.263 197.53 562.389 195.985 560.957 193.895C559.526 191.804 558.81 189.18 558.81 186.022V134.393Z" fill="#101010"/>
<path d="M545.828 129.484V199.278H535.639V129.484H545.828Z" fill="#101010"/>
<path d="M516.522 177.57V146.933H526.746V199.278H516.727V190.213H516.181C514.977 193.008 513.046 195.336 510.388 197.199C507.753 199.04 504.47 199.96 500.539 199.96C497.177 199.96 494.2 199.221 491.61 197.745C489.043 196.245 487.021 194.03 485.544 191.099C484.09 188.168 483.363 184.545 483.363 180.228V146.933H493.553V179.001C493.553 182.568 494.541 185.408 496.518 187.521C498.494 189.634 501.062 190.69 504.22 190.69C506.128 190.69 508.025 190.213 509.911 189.259C511.819 188.305 513.398 186.862 514.648 184.931C515.92 183 516.545 180.546 516.522 177.57Z" fill="#101010"/>
<path d="M475.935 159.713L466.7 161.349C466.313 160.168 465.7 159.043 464.859 157.975C464.041 156.907 462.928 156.033 461.52 155.351C460.111 154.669 458.35 154.329 456.237 154.329C453.352 154.329 450.944 154.976 449.013 156.271C447.081 157.543 446.116 159.191 446.116 161.213C446.116 162.962 446.763 164.371 448.058 165.438C449.353 166.506 451.443 167.381 454.329 168.063L462.644 169.971C467.461 171.084 471.05 172.8 473.413 175.117C475.776 177.434 476.957 180.445 476.957 184.148C476.957 187.283 476.049 190.078 474.231 192.531C472.436 194.962 469.926 196.871 466.7 198.257C463.496 199.643 459.782 200.335 455.556 200.335C449.694 200.335 444.912 199.086 441.208 196.587C437.505 194.065 435.233 190.487 434.393 185.852L444.241 184.352C444.855 186.92 446.116 188.862 448.024 190.18C449.933 191.475 452.42 192.122 455.488 192.122C458.827 192.122 461.497 191.429 463.496 190.044C465.495 188.635 466.495 186.92 466.495 184.898C466.495 183.262 465.882 181.887 464.655 180.774C463.451 179.661 461.599 178.82 459.1 178.252L450.239 176.31C445.355 175.196 441.742 173.424 439.402 170.993C437.085 168.562 435.926 165.484 435.926 161.758C435.926 158.668 436.789 155.964 438.516 153.647C440.243 151.33 442.628 149.524 445.673 148.229C448.717 146.911 452.205 146.252 456.135 146.252C461.792 146.252 466.245 147.479 469.494 149.932C472.743 152.363 474.89 155.624 475.935 159.713Z" fill="#101010"/>
<path d="M394.342 168.199V199.279H384.152V146.934H393.933V155.453H394.581C395.785 152.682 397.67 150.455 400.238 148.774C402.828 147.093 406.088 146.252 410.018 146.252C413.585 146.252 416.709 147.002 419.39 148.501C422.071 149.978 424.15 152.182 425.627 155.113C427.103 158.043 427.842 161.667 427.842 165.984V199.279H417.652V167.211C417.652 163.416 416.664 160.452 414.687 158.316C412.711 156.158 409.996 155.078 406.542 155.078C404.18 155.078 402.078 155.59 400.238 156.612C398.42 157.634 396.977 159.134 395.91 161.11C394.865 163.064 394.342 165.427 394.342 168.199Z" fill="#101010"/>
<path d="M353.178 200.335C348.271 200.335 343.988 199.211 340.33 196.962C336.672 194.712 333.832 191.566 331.81 187.522C329.788 183.478 328.777 178.752 328.777 173.345C328.777 167.915 329.788 163.167 331.81 159.1C333.832 155.033 336.672 151.875 340.33 149.626C343.988 147.377 348.271 146.252 353.178 146.252C358.085 146.252 362.368 147.377 366.026 149.626C369.684 151.875 372.524 155.033 374.546 159.1C376.568 163.167 377.579 167.915 377.579 173.345C377.579 178.752 376.568 183.478 374.546 187.522C372.524 191.566 369.684 194.712 366.026 196.962C362.368 199.211 358.085 200.335 353.178 200.335ZM353.212 191.782C356.393 191.782 359.028 190.941 361.118 189.26C363.209 187.579 364.754 185.341 365.753 182.546C366.776 179.752 367.287 176.673 367.287 173.311C367.287 169.971 366.776 166.904 365.753 164.109C364.754 161.292 363.209 159.032 361.118 157.328C359.028 155.624 356.393 154.772 353.212 154.772C350.009 154.772 347.35 155.624 345.238 157.328C343.147 159.032 341.591 161.292 340.569 164.109C339.569 166.904 339.069 169.971 339.069 173.311C339.069 176.673 339.569 179.752 340.569 182.546C341.591 185.341 343.147 187.579 345.238 189.26C347.35 190.941 350.009 191.782 353.212 191.782Z" fill="#101010"/>
<path d="M324.144 152.181H313.511C313.102 149.909 312.341 147.91 311.228 146.183C310.114 144.457 308.751 142.991 307.138 141.787C305.525 140.583 303.719 139.674 301.72 139.061C299.743 138.447 297.641 138.141 295.415 138.141C291.394 138.141 287.793 139.152 284.612 141.174C281.454 143.196 278.955 146.161 277.114 150.068C275.297 153.976 274.388 158.747 274.388 164.381C274.388 170.061 275.297 174.855 277.114 178.763C278.955 182.671 281.465 185.624 284.646 187.623C287.827 189.623 291.405 190.622 295.381 190.622C297.585 190.622 299.675 190.327 301.651 189.736C303.651 189.123 305.457 188.226 307.07 187.044C308.683 185.863 310.046 184.42 311.159 182.716C312.295 180.989 313.079 179.013 313.511 176.786L324.144 176.82C323.576 180.251 322.474 183.409 320.838 186.294C319.225 189.157 317.146 191.633 314.601 193.724C312.08 195.791 309.194 197.393 305.945 198.529C302.696 199.665 299.152 200.233 295.313 200.233C289.269 200.233 283.885 198.801 279.159 195.939C274.434 193.053 270.708 188.93 267.981 183.568C265.278 178.206 263.926 171.811 263.926 164.381C263.926 156.93 265.289 150.534 268.015 145.195C270.742 139.833 274.468 135.721 279.193 132.858C283.919 129.973 289.292 128.53 295.313 128.53C299.016 128.53 302.469 129.064 305.673 130.132C308.899 131.177 311.796 132.722 314.363 134.767C316.93 136.789 319.054 139.265 320.736 142.196C322.417 145.104 323.553 148.432 324.144 152.181Z" fill="#101010"/>
<path d="M534.051 115.292C529.144 115.292 524.861 114.167 521.203 111.918C517.545 109.668 514.705 106.522 512.683 102.478C510.661 98.4337 509.65 93.7081 509.65 88.3009C509.65 82.871 510.661 78.1226 512.683 74.0558C514.705 69.9891 517.545 66.8311 521.203 64.5818C524.861 62.3326 529.144 61.208 534.051 61.208C538.958 61.208 543.241 62.3326 546.899 64.5818C550.557 66.8311 553.397 69.9891 555.419 74.0558C557.441 78.1226 558.452 82.871 558.452 88.3009C558.452 93.7081 557.441 98.4337 555.419 102.478C553.397 106.522 550.557 109.668 546.899 111.918C543.241 114.167 538.958 115.292 534.051 115.292ZM534.085 106.738C537.266 106.738 539.901 105.897 541.991 104.216C544.082 102.535 545.627 100.297 546.626 97.5022C547.649 94.7078 548.16 91.6293 548.16 88.2668C548.16 84.9271 547.649 81.8599 546.626 79.0655C545.627 76.2482 544.082 73.9877 541.991 72.2837C539.901 70.5798 537.266 69.7278 534.085 69.7278C530.882 69.7278 528.224 70.5798 526.111 72.2837C524.02 73.9877 522.464 76.2482 521.442 79.0655C520.442 81.8599 519.942 84.9271 519.942 88.2668C519.942 91.6293 520.442 94.7078 521.442 97.5022C522.464 100.297 524.02 102.535 526.111 104.216C528.224 105.897 530.882 106.738 534.085 106.738Z" fill="#101010"/>
<path d="M470.762 83.1549V114.235H460.572V61.8896H470.353V70.4094H471C472.205 67.6376 474.09 65.4111 476.658 63.7299C479.248 62.0486 482.508 61.208 486.438 61.208C490.005 61.208 493.129 61.9577 495.81 63.4572C498.491 64.934 500.57 67.1378 502.047 70.0686C503.523 72.9994 504.262 76.6231 504.262 80.9398V114.235H494.072V82.1667C494.072 78.3725 493.084 75.4076 491.107 73.272C489.131 71.1137 486.416 70.0345 482.962 70.0345C480.599 70.0345 478.498 70.5457 476.658 71.5681C474.84 72.5904 473.397 74.0899 472.33 76.0665C471.284 78.0204 470.762 80.3832 470.762 83.1549Z" fill="#101010"/>
<path d="M442.598 114.235V61.8895H452.787V114.235H442.598ZM447.744 53.8127C445.972 53.8127 444.449 53.222 443.177 52.0406C441.928 50.8365 441.303 49.4052 441.303 47.7466C441.303 46.0654 441.928 44.6341 443.177 43.4527C444.449 42.2485 445.972 41.6465 447.744 41.6465C449.516 41.6465 451.027 42.2485 452.276 43.4527C453.548 44.6341 454.185 46.0654 454.185 47.7466C454.185 49.4052 453.548 50.8365 452.276 52.0406C451.027 53.222 449.516 53.8127 447.744 53.8127Z" fill="#101010"/>
<path d="M435.561 61.8897V70.0687H406.969V61.8897H435.561ZM414.637 49.3486H424.826V98.8656C424.826 100.842 425.122 102.33 425.712 103.33C426.303 104.307 427.064 104.977 427.996 105.341C428.95 105.681 429.984 105.852 431.097 105.852C431.915 105.852 432.63 105.795 433.244 105.681C433.857 105.568 434.334 105.477 434.675 105.409L436.515 113.826C435.925 114.053 435.084 114.281 433.993 114.508C432.903 114.758 431.54 114.894 429.904 114.917C427.223 114.962 424.724 114.485 422.407 113.486C420.089 112.486 418.215 110.941 416.784 108.851C415.352 106.761 414.637 104.136 414.637 100.978V49.3486Z" fill="#101010"/>
<path d="M374.875 114.235V61.8893H384.724V70.2046H385.269C386.223 67.3874 387.905 65.1722 390.313 63.5592C392.744 61.9234 395.493 61.1055 398.56 61.1055C399.196 61.1055 399.946 61.1282 400.809 61.1736C401.695 61.2191 402.388 61.2759 402.888 61.344V71.0906C402.479 70.977 401.752 70.8521 400.707 70.7158C399.662 70.5567 398.617 70.4772 397.572 70.4772C395.163 70.4772 393.016 70.9884 391.131 72.0108C389.268 73.0104 387.791 74.4077 386.7 76.2025C385.61 77.9746 385.065 79.9967 385.065 82.2686V114.235H374.875Z" fill="#101010"/>
<path d="M345.91 115.292C340.753 115.292 336.311 114.19 332.585 111.986C328.882 109.759 326.019 106.635 323.997 102.614C321.998 98.5701 320.998 93.8331 320.998 88.4031C320.998 83.0413 321.998 78.3157 323.997 74.2262C326.019 70.1367 328.836 66.9447 332.449 64.65C336.084 62.3553 340.332 61.208 345.194 61.208C348.148 61.208 351.01 61.6965 353.782 62.6734C356.554 63.6503 359.042 65.1839 361.245 67.2741C363.449 69.3643 365.187 72.0792 366.46 75.419C367.732 78.736 368.368 82.7687 368.368 87.5171V91.1295H326.757V83.4957H358.383C358.383 80.8149 357.838 78.4407 356.747 76.3732C355.656 74.283 354.123 72.6359 352.146 71.4317C350.192 70.2276 347.898 69.6255 345.262 69.6255C342.4 69.6255 339.901 70.3298 337.765 71.7384C335.652 73.1243 334.016 74.9419 332.858 77.1911C331.722 79.4176 331.154 81.8372 331.154 84.45V90.4138C331.154 93.9126 331.767 96.8888 332.994 99.3425C334.243 101.796 335.981 103.671 338.208 104.966C340.434 106.238 343.036 106.874 346.012 106.874C347.943 106.874 349.704 106.601 351.294 106.056C352.885 105.488 354.259 104.648 355.418 103.534C356.577 102.421 357.463 101.046 358.076 99.4107L367.72 101.149C366.948 103.989 365.562 106.476 363.563 108.612C361.586 110.725 359.098 112.372 356.1 113.554C353.123 114.712 349.727 115.292 345.91 115.292Z" fill="#101010"/>
<path d="M266.174 114.235V44.4414H291.733C296.686 44.4414 300.787 45.2593 304.036 46.8951C307.285 48.5082 309.716 50.7006 311.329 53.4724C312.942 56.2214 313.748 59.3226 313.748 62.776C313.748 65.684 313.214 68.1377 312.147 70.137C311.079 72.1136 309.647 73.704 307.853 74.9081C306.08 76.0895 304.127 76.9529 301.991 77.4981V78.1797C304.308 78.2933 306.569 79.0431 308.773 80.4289C310.999 81.7921 312.839 83.7346 314.294 86.2565C315.748 88.7783 316.475 91.8454 316.475 95.4578C316.475 99.0248 315.634 102.228 313.953 105.068C312.294 107.885 309.727 110.123 306.251 111.782C302.775 113.418 298.333 114.235 292.926 114.235H266.174ZM276.704 105.204H291.904C296.947 105.204 300.56 104.228 302.741 102.274C304.922 100.32 306.012 97.8774 306.012 94.9466C306.012 92.7429 305.456 90.7208 304.342 88.8806C303.229 87.0403 301.639 85.5749 299.571 84.4844C297.527 83.3938 295.096 82.8486 292.278 82.8486H276.704V105.204ZM276.704 74.6355H290.813C293.176 74.6355 295.3 74.1811 297.186 73.2723C299.094 72.3636 300.605 71.0913 301.718 69.4555C302.854 67.797 303.422 65.8431 303.422 63.5939C303.422 60.7085 302.411 58.2889 300.389 56.335C298.367 54.3811 295.266 53.4042 291.086 53.4042H276.704V74.6355Z" fill="#101010"/>
</svg>
